<svg width="132" height="28" viewBox="0 0 132 28" fill="none" xmlns="http://www.w3.org/2000/svg"><g clip-path="url(#a)"><mask id="b" style="mask-type:luminance" maskUnits="userSpaceOnUse" x="10" y="11" width="7" height="6"><path d="M11.2 12.121a2.82 2.82 0 0 0 1.338 4.6 2.77 2.77 0 0 0 1.86-.143 2.8 2.8 0 0 0 1.354-1.289 2.826 2.826 0 0 0-.724-3.461 2.78 2.78 0 0 0-2.89-.387 2.8 2.8 0 0 0-.938.684" fill="#fff"/></mask><g mask="url(#b)"><path d="M16.375 11.195h-6.207v5.932h6.207z" fill="url(#c)"/></g><mask id="d" style="mask-type:luminance" maskUnits="userSpaceOnUse" x="1" y="2" width="14" height="13"><path d="M5.286 3.324A13.4 13.4 0 0 0 1.082 8.7c1.104.273 4.404 1.355 5.924 5.475.456-.15 1.438-.725 2.12-2.952.915-2.98 2.65-5.848 4.9-6.809-1.35-1.345-2.96-2.075-4.798-2.075-1.218 0-2.53.317-3.942.983" fill="#fff"/></mask><g mask="url(#d)"><path d="m4.925-3.61 14.474 9.46-9.21 14.275-14.474-9.462z" fill="url(#e)"/></g><mask id="f" style="mask-type:luminance" maskUnits="userSpaceOnUse" x="5" y="0" width="19" height="8"><path d="M5.285 3.322c4.916-2.321 8.704-.406 11.024 4.433 3.695.667 6.205-1.184 7.193-2.279A13.22 13.22 0 0 0 5.285 3.322" fill="#fff"/></mask><g mask="url(#f)"><path d="M7.843-5.734 26.19 1.727l-5.244 13.066L2.597 7.33z" fill="url(#g)"/></g><mask id="h" style="mask-type:luminance" maskUnits="userSpaceOnUse" x="4" y="18" width="13" height="10"><path d="M8.083 26.3a13.24 13.24 0 0 0 6.726.979c-.316-1.099-1.038-4.52 1.75-7.902-.358-.323-1.346-.891-3.601-.373-3.021.693-6.355.613-8.308-.866-.8 3.072.225 5.912 3.433 8.163" fill="#fff"/></mask><g mask="url(#h)"><path d="m3.887 17.47-.528 10.05 13.162.689.528-10.05z" fill="url(#i)"/></g><mask id="j" style="mask-type:luminance" maskUnits="userSpaceOnUse" x="0" y="9" width="9" height="18"><path d="M1.781 20.683a13.25 13.25 0 0 0 6.307 5.62c-4.453-3.128-4.7-7.383-1.697-11.826C5.118 10.922 2.268 9.659.834 9.345a13.42 13.42 0 0 0 .947 11.338" fill="#fff"/></mask><g mask="url(#j)"><path d="M7.923 8.144-2.812 9.67l2.504 17.816 10.736-1.528z" fill="url(#k)"/></g><mask id="l" style="mask-type:luminance" maskUnits="userSpaceOnUse" x="16" y="6" width="11" height="14"><path d="M16.266 8.449c-.1.471-.094 1.617 1.48 3.324 2.106 2.288 3.705 5.233 3.407 7.676 3.045-.84 4.975-3.153 5.307-7.074a13.46 13.46 0 0 0-2.522-6.352c-.787.825-3.373 3.164-7.672 2.427" fill="#fff"/></mask><g mask="url(#l)"><path d="M24.34 1.833 10.77 8.788l7.52 14.85 13.57-6.956z" fill="url(#m)"/></g><mask id="n" style="mask-type:luminance" maskUnits="userSpaceOnUse" x="15" y="12" width="12" height="16"><path d="M17.134 19.767c-2.422 2.887-2.084 6-1.637 7.41a13.27 13.27 0 0 0 8.428-5.19 13.43 13.43 0 0 0 2.535-9.614c-.461 5.445-4.002 7.79-9.325 7.393" fill="#fff"/></mask><g mask="url(#n)"><path d="M22.219 6.475 7.574 17.985 19.296 33.08 33.94 21.568z" fill="url(#o)"/></g><path d="M35.143 21.049h-2.998V6.953h4.82a9.3 9.3 0 0 1 2.38.283 5.1 5.1 0 0 1 1.811.855c.501.384.897.89 1.15 1.47q.4.897.4 2.105a5.2 5.2 0 0 1-.41 2.114 4.15 4.15 0 0 1-1.19 1.56 5.4 5.4 0 0 1-1.9.966 8.9 8.9 0 0 1-2.52.333h-1.543zm-.06-7.068h1.644q1.358 0 2.12-.533.762-.534.76-1.661 0-1.189-.74-1.682t-2.12-.493h-1.661zm16.703 7.309a7.8 7.8 0 0 1-2.77-.472 5.8 5.8 0 0 1-2.155-1.399 6.3 6.3 0 0 1-1.39-2.286q-.492-1.358-.49-3.13 0-1.773.51-3.132a6.5 6.5 0 0 1 1.415-2.286 5.9 5.9 0 0 1 2.13-1.399 7.4 7.4 0 0 1 2.67-.471q1.622 0 2.891.503a5.8 5.8 0 0 1 2.14 1.44 6.3 6.3 0 0 1 1.331 2.295c.319.985.474 2.015.46 3.05q0 1.873-.51 3.253a6.1 6.1 0 0 1-1.42 2.273 5.7 5.7 0 0 1-2.14 1.329c-.86.294-1.763.44-2.672.431m.1-2.658c.482.004.959-.092 1.401-.283a2.9 2.9 0 0 0 1.1-.856c.33-.427.572-.915.713-1.437.178-.67.262-1.361.25-2.054q0-2.398-1-3.514-1.002-1.117-2.643-1.117a3.5 3.5 0 0 0-1.391.283 3.04 3.04 0 0 0-1.13.855 4.1 4.1 0 0 0-.75 1.45 7 7 0 0 0-.27 2.043 6.5 6.5 0 0 0 .289 2.054 4.2 4.2 0 0 0 .79 1.44c.322.373.726.666 1.18.855.464.19.96.286 1.46.283m20.092 1.857q-.282.14-.61.282a6 6 0 0 1-.781.26 7.5 7.5 0 0 1-1.04.188q-.674.075-1.35.07a8.7 8.7 0 0 1-2.91-.463 6.1 6.1 0 0 1-2.241-1.36 6.04 6.04 0 0 1-1.44-2.224q-.511-1.328-.511-3.06 0-1.814.51-3.212a6.05 6.05 0 0 1 1.462-2.335 6 6 0 0 1 2.34-1.438 9.3 9.3 0 0 1 3.091-.483 9.6 9.6 0 0 1 2.05.201c.505.103.998.258 1.47.463l-.66 2.537a7.4 7.4 0 0 0-1.301-.323 8 8 0 0 0-1.14-.101 6.4 6.4 0 0 0-1.89.262c-.541.16-1.04.44-1.46.818a3.7 3.7 0 0 0-.952 1.415q-.34.859-.339 2.028 0 2.24 1.25 3.37 1.25 1.132 3.373 1.132a6.3 6.3 0 0 0 1.16-.13 6.2 6.2 0 0 0 1.322-.413zm11.399-2.522h-5.381l-1 3.08H74.03l4.785-14.096h3.9l4.72 14.095h-3.06zm-4.56-2.658h3.742l-1.863-5.92zm15.444 5.737h-3.001V9.731h-3.982V6.952H98.22v2.779h-3.96zm12.162.242a7.8 7.8 0 0 1-2.771-.472 5.84 5.84 0 0 1-2.149-1.399 6.3 6.3 0 0 1-1.391-2.286q-.49-1.358-.49-3.13 0-1.773.51-3.132a6.5 6.5 0 0 1 1.405-2.285 5.9 5.9 0 0 1 2.131-1.399 7.4 7.4 0 0 1 2.671-.471q1.619 0 2.891.503a5.8 5.8 0 0 1 2.14 1.44 6.3 6.3 0 0 1 1.33 2.295c.319.985.474 2.015.46 3.05q0 1.873-.51 3.253a6.1 6.1 0 0 1-1.416 2.272 5.7 5.7 0 0 1-2.14 1.329 8 8 0 0 1-2.671.433m.1-2.658c.482.004.958-.092 1.4-.283.431-.19.809-.485 1.1-.856.33-.427.571-.917.711-1.44.178-.669.263-1.36.25-2.053q0-2.398-1-3.514-1-1.117-2.64-1.117a3.5 3.5 0 0 0-1.391.283 3 3 0 0 0-1.13.855 4.1 4.1 0 0 0-.75 1.45 7 7 0 0 0-.27 2.044c-.014.696.084 1.39.29 2.054a4.2 4.2 0 0 0 .791 1.44c.321.373.725.666 1.18.855.463.19.96.286 1.46.283m25.367 2.415h-3.021l-.76-9.364-2.88 9.364h-2.861l-2.842-9.323-.759 9.323h-3.021l1.4-14.096h3.581l3.161 10.632 3.121-10.632h3.461z" fill="#292929"/></g><defs><linearGradient id="e" x1="7.233" y1="12.317" x2="13.897" y2="2.122" gradientUnits="userSpaceOnUse"><stop stop-color="#4a96d2"/><stop offset="1" stop-color="#1f2466"/></linearGradient><linearGradient id="g" x1="7.122" y1="-.216" x2="23.556" y2="6.381" gradientUnits="userSpaceOnUse"><stop stop-color="#4a96d2"/><stop offset="1" stop-color="#1f2466"/></linearGradient><linearGradient id="i" x1="16.127" y1="22.658" x2="4.02" y2="22.023" gradientUnits="userSpaceOnUse"><stop stop-color="#4a96d2"/><stop offset="1" stop-color="#1f2466"/></linearGradient><linearGradient id="k" x1="5.362" y1="26.561" x2="2.854" y2="8.933" gradientUnits="userSpaceOnUse"><stop stop-color="#4a96d2"/><stop offset="1" stop-color="#1f2466"/></linearGradient><linearGradient id="m" x1="19.201" y1="6.906" x2="24.761" y2="17.752" gradientUnits="userSpaceOnUse"><stop stop-color="#4a96d2"/><stop offset="1" stop-color="#1f2466"/></linearGradient><linearGradient id="o" x1="26.756" y1="13.145" x2="12.748" y2="24.024" gradientUnits="userSpaceOnUse"><stop stop-color="#4a96d2"/><stop offset="1" stop-color="#1f2466"/></linearGradient><radialGradient id="c" cx="0" cy="0" r="1" gradientUnits="userSpaceOnUse" gradientTransform="matrix(3.92623 0 0 3.9519 12.407 12.974)"><stop stop-color="#4a96d2"/><stop offset="1" stop-color="#1f2466"/></radialGradient><clipPath id="a"><path fill="#fff" d="M0 .633h132v26.734H0z"/></clipPath></defs></svg>